<?xml version="1.0" encoding="utf-8"?>
<!-- Generator: Adobe Illustrator 26.3.1, SVG Export Plug-In . SVG Version: 6.00 Build 0)  -->
<svg version="1.1" id="Слой_1" xmlns="http://www.w3.org/2000/svg" xmlns:xlink="http://www.w3.org/1999/xlink" x="0px" y="0px"
	 viewBox="0 0 2830.04 177.08" style="enable-background:new 0 0 2830.04 177.08;" xml:space="preserve">
<g>
	<g>
		<g>
			<path class="st0" d="M2109.98,53.99c-4.74-10.68-11.52-19.99-20.13-27.68c-8.55-7.63-18.9-13.6-30.77-17.75
				c-11.75-4.1-24.8-6.18-38.81-6.18h-223.02c-14.07,0-27.15,2.08-38.85,6.18c-11.84,4.15-22.17,10.12-30.72,17.74
				c-8.61,7.69-15.38,17-20.13,27.69c-4.74,10.66-7.15,22.52-7.15,35.25c0,12.78,2.4,24.72,7.14,35.47
				c4.74,10.77,11.5,20.17,20.09,27.95c8.53,7.73,18.86,13.8,30.7,18.06c11.71,4.21,24.81,6.35,38.92,6.35h223.02
				c14.05,0,27.12-2.14,38.87-6.35c11.89-4.26,22.23-10.34,30.76-18.07c8.59-7.77,15.35-17.18,20.09-27.95
				c4.74-10.75,7.14-22.69,7.14-35.47C2117.13,76.52,2114.73,64.65,2109.98,53.99z M2077.96,112.91c-3,7.03-7.11,13.03-12.36,18
				c-5.24,4.97-11.46,8.8-18.64,11.48c-7.18,2.68-15,4.03-23.44,4.03h-229.5c-8.44,0-16.25-1.34-23.44-4.03
				c-7.18-2.68-13.42-6.5-18.69-11.48c-5.27-4.97-9.4-10.97-12.36-18c-2.96-7.03-4.44-14.94-4.44-23.71s1.48-16.64,4.44-23.6
				c2.96-6.96,7.08-12.85,12.36-17.68c5.27-4.82,11.51-8.5,18.69-11.04c7.18-2.54,15-3.81,23.44-3.81h229.5
				c8.44,0,16.26,1.27,23.44,3.81c7.18,2.54,13.4,6.22,18.64,11.04c5.24,4.83,9.36,10.72,12.36,17.68
				c2.99,6.96,4.49,14.83,4.49,23.6S2080.95,105.87,2077.96,112.91z"/>
		</g>
		<polygon class="st0" points="2795.45,4.68 2795.45,49.05 2593.45,49.05 2593.45,4.68 2558.97,4.68 2558.97,174.69 2593.45,174.69 
			2593.45,78.54 2795.45,78.54 2795.45,174.69 2830.04,174.69 2830.04,4.68 		"/>
		<polygon class="st0" points="2280.18,4.68 2190.44,92.67 2190.44,4.68 2155.96,4.68 2155.96,174.69 2190.44,174.69 
			2190.44,134.34 2215.78,109.86 2278.44,174.69 2324.34,174.69 2240.59,85.82 2324.34,4.68 		"/>
		<path class="st0" d="M2421.04,4.68l-79.83,170.02h36.33l13.16-28.61h99.31l13.6,28.61h36.22L2457.59,4.68H2421.04z
			 M2403.86,117.69l35.79-77.23l36.77,77.23H2403.86z"/>
		<polygon class="st0" points="1627.53,49.05 1581.04,49.05 1391.23,49.05 1334.74,49.05 1334.74,4.68 1300.26,4.68 1300.26,174.69 
			1334.74,174.69 1334.74,78.54 1392.19,78.54 1582,78.54 1627.53,78.54 1627.53,174.69 1662.12,174.69 1662.12,4.68 1627.53,4.68 
					"/>
		<g>
			<polygon class="st0" points="472.67,171.26 507.16,171.26 507.16,1.25 472.67,1.25 472.67,80.89 319.29,1.25 284.81,1.25 
				284.81,171.26 319.29,171.26 319.29,38.12 472.67,117.44 			"/>
			<rect x="550.88" y="1.25" class="st0" width="34.71" height="170.02"/>
			<path class="st0" d="M787.09,24.09c-8.52-7.64-18.76-13.58-30.73-17.79C744.4,2.11,731.19,0,716.76,0
				c-14.5,0-27.72,2.11-39.65,6.31c-11.93,4.21-22.15,10.14-30.68,17.79c-8.52,7.65-15.13,16.81-19.85,27.47
				c-4.72,10.66-7.07,22.4-7.07,35.24c0,12.91,2.36,24.75,7.07,35.52c4.71,10.77,11.33,20.03,19.85,27.79
				c8.52,7.77,18.75,13.8,30.68,18.11c11.93,4.32,25.14,6.47,39.65,6.47c14.43,0,27.63-2.15,39.6-6.47
				c11.97-4.32,22.21-10.35,30.73-18.11c8.52-7.76,15.14-17.02,19.85-27.79c4.72-10.77,7.07-22.61,7.07-35.52
				c0-12.84-2.36-24.58-7.07-35.24C802.23,40.9,795.61,31.75,787.09,24.09z M774.74,110.52c-3.19,7.03-7.58,13.03-13.16,18
				c-5.58,4.97-12.2,8.8-19.85,11.48c-7.65,2.68-15.97,4.03-24.97,4.03c-8.99,0-17.31-1.34-24.96-4.03
				c-7.65-2.68-14.29-6.5-19.91-11.48c-5.62-4.97-10.01-10.97-13.16-18S654,95.58,654,86.81s1.58-16.64,4.73-23.6
				s7.54-12.85,13.16-17.68c5.62-4.82,12.26-8.5,19.91-11.04c7.65-2.54,15.97-3.81,24.96-3.81c8.99,0,17.32,1.27,24.97,3.81
				c7.65,2.54,14.27,6.22,19.85,11.04c5.58,4.83,9.97,10.72,13.16,17.68c3.19,6.96,4.79,14.83,4.79,23.6
				S777.93,103.49,774.74,110.52z"/>
			<polygon class="st0" points="886.57,38.12 1113.88,156.44 1113.88,171.26 1148.36,171.26 1148.36,1.25 1113.88,1.25 
				1113.88,120.28 886.57,1.25 852.08,1.25 852.08,171.26 886.57,171.26 			"/>
		</g>
	</g>
	<g>
		<path class="st0" d="M205.57,0v99.36c0,7.51-0.91,14.05-2.72,19.62c-1.81,5.57-4.65,10.19-8.52,13.87
			c-3.87,3.68-8.83,6.43-14.87,8.27c-5.81,1.76-12.72,2.67-20.73,2.74c-0.33,0-32.99,0-33.32,0c-0.34,0-40.8,0-41.13,0
			c-8-0.07-14.9-0.99-20.7-2.74c-6.05-1.83-11-4.59-14.87-8.27c-3.87-3.68-6.71-8.3-8.52-13.87c-1.81-5.57-2.72-12.11-2.72-19.62V0
			H0v101.25c0,8.01,0.72,15.35,2.17,22.02c1.45,6.68,3.67,12.69,6.66,18.05c2.99,5.36,6.79,10.04,11.38,14.04
			c4.6,4,10.06,7.35,16.39,10.04c6.33,2.69,13.54,4.7,21.62,6.04c7.75,1.28,16.35,1.94,25.81,2c0.41,0,40.95,0,41.37,0
			c0.3,0,32.94,0,33.24,0c9.26-0.04,17.74-0.71,25.44-2c7.95-1.34,15.08-3.35,21.39-6.04c6.31-2.69,11.82-6.03,16.53-10.04
			c4.71-4.01,8.62-8.69,11.73-14.04c3.11-5.36,5.43-11.37,6.98-18.05c1.54-6.67,2.32-14.01,2.32-22.02V0H205.57z"/>
	</g>
</g>
</svg>
