<?xml version="1.0" encoding="utf-8"?>
<!-- Generator: Adobe Illustrator 26.3.1, SVG Export Plug-In . SVG Version: 6.00 Build 0)  -->
<svg version="1.1" id="Слой_1" xmlns="http://www.w3.org/2000/svg" xmlns:xlink="http://www.w3.org/1999/xlink" x="0px" y="0px"
	 viewBox="0 0 436.12 585.96" style="enable-background:new 0 0 436.12 585.96;" xml:space="preserve">
<g>
	<path d="M47.9,95.79c6.84,0,13.33-1.45,19.21-4.04c21.25-9.38,42.78-18.26,65.48-23.17c56.98-12.31,113.97-12.31,170.95,0
		c22.7,4.9,44.23,13.79,65.48,23.17c5.87,2.59,12.37,4.04,19.21,4.04c28.26,0,50.81-24.48,47.59-53.39
		c-2.39-21.43-19.57-39.05-40.94-41.95c-10.09-1.37-19.66,0.44-27.89,4.53c-11.04,5.5-22.21,10.83-34.09,14.17
		c-76.56,21.52-153.11,21.52-229.67,0c-11.88-3.34-23.04-8.67-34.09-14.17c-8.23-4.1-17.79-5.9-27.89-4.53
		C19.88,3.34,2.69,20.97,0.31,42.4C-2.91,71.31,19.63,95.79,47.9,95.79z"/>
	<path d="M340.32,142.53v254.04c0,19.21-2.32,35.93-6.95,50.16c-4.63,14.23-11.9,26.06-21.79,35.47
		c-9.9,9.41-22.57,16.45-38.03,21.13c-15.46,4.68-33.96,7.02-55.5,7.02c-21.55,0-40.05-2.34-55.5-7.02
		c-15.46-4.68-28.13-11.73-38.03-21.13c-9.9-9.41-17.16-21.23-21.79-35.47c-4.63-14.23-6.95-30.95-6.95-50.16V142.53H0v258.86
		c0,20.48,1.85,39.25,5.56,56.31c3.71,17.07,9.39,32.45,17.04,46.14c7.65,13.7,17.36,25.66,29.1,35.9
		c11.75,10.23,25.71,18.79,41.9,25.66c16.18,6.87,34.61,12.02,55.28,15.43c20.67,3.41,43.73,5.11,69.17,5.11
		c24.57,0,47.02-1.7,67.35-5.11c20.33-3.42,38.56-8.56,54.7-15.43c16.13-6.87,30.22-15.43,42.27-25.66
		c12.04-10.24,22.03-22.2,29.98-35.9c7.95-13.7,13.89-29.08,17.84-46.14c3.95-17.06,5.92-35.83,5.92-56.31V142.53H340.32z"/>
</g>
</svg>
